<?xml version="1.0" standalone="no"?>
<!DOCTYPE svg PUBLIC "-//W3C//DTD SVG 20010904//EN"
 "http://www.w3.org/TR/2001/REC-SVG-20010904/DTD/svg10.dtd">
<svg version="1.0" xmlns="http://www.w3.org/2000/svg"
 width="700.000000pt" height="700.000000pt" viewBox="0 0 700.000000 700.000000"
 preserveAspectRatio="xMidYMid meet">
<metadata>
Created by potrace 1.14, written by Peter Selinger 2001-2017
</metadata>
<g transform="translate(0.000000,700.000000) scale(0.100000,-0.100000)"
fill="#000000" stroke="none">
<path d="M2339 6963 c0 -21 0 -75 0 -119 l2 -82 -718 0 c-395 -1 -734 -1 -754
-1 l-36 -1 0 -3380 0 -3380 2667 0 2667 0 0 3380 0 3380 -21 1 c-12 0 -349 1
-751 2 l-730 2 -3 118 -3 117 -1159 0 -1160 0 -1 -37z m2220 -134 l-2 -67
-1056 1 -1056 2 -3 54 c-1 30 -1 60 2 66 3 8 293 11 1060 11 l1057 0 -2 -67z
m-2213 -176 c16 -6 69 -102 61 -110 -3 -2 -307 -4 -675 -4 l-670 0 -3 -22 c-2
-12 -4 -1433 -3 -3157 l1 -3135 2441 -1 c1759 -1 2442 2 2443 10 1 14 1 6266
0 6288 -1 15 -50 17 -672 17 -369 0 -673 2 -675 4 -3 2 8 28 23 58 l28 54 708
2 c389 2 707 -1 708 -5 3 -23 3 -6511 1 -6528 l-4 -21 -2559 0 c-1815 1 -2559
4 -2560 11 -1 14 -1 6494 0 6523 l1 23 696 -1 c382 0 702 -3 710 -6z m2174 -3
c0 -2 -10 -28 -22 -57 l-22 -53 -75 -1 c-100 0 -1819 0 -1851 1 -20 0 -29 10
-48 53 -12 28 -22 54 -22 57 0 3 459 5 1020 5 561 0 1020 -2 1020 -5z m-1933
-480 l66 -140 61 0 c100 -1 1506 -1 1572 0 l61 0 66 141 67 140 453 -3 452 -3
51 -27 c71 -37 137 -115 158 -186 16 -53 17 -252 14 -2732 l-3 -2675 -28 -57
c-32 -65 -89 -121 -156 -152 l-46 -21 -1885 0 -1885 0 -49 24 c-70 35 -137
106 -161 172 -20 53 -20 79 -20 2734 0 2301 2 2685 14 2715 39 95 106 161 194
191 47 17 96 18 495 19 l443 0 66 -140z m1773 135 c0 -2 -18 -43 -40 -90 l-41
-85 -779 0 -779 0 -41 86 c-22 47 -40 87 -40 90 0 2 387 4 860 4 473 0 860 -2
860 -5z"/>
<path d="M3413 5433 c-5 -2 -8 -191 -7 -420 l1 -418 789 0 789 0 0 420 0 420
-782 0 c-431 0 -786 -1 -790 -2z m1476 -418 c0 -242 -2 -315 -12 -316 -16 -1
-1339 -1 -1354 0 -10 1 -13 71 -13 316 l0 315 689 0 689 0 1 -315z"/>
<path d="M3630 5015 c0 -107 3 -195 8 -196 10 -1 1082 -1 1108 0 21 1 21 4 22
196 l0 195 -569 0 -569 0 0 -195z"/>
<path d="M2772 5227 c-18 -18 -32 -37 -32 -43 0 -5 34 -38 75 -74 41 -35 72
-66 70 -68 -2 -2 -228 -5 -502 -5 l-498 -2 -3 -50 -3 -51 516 1 516 0 -33 -29
c-18 -16 -58 -52 -90 -80 l-56 -51 36 -37 37 -37 150 135 c83 74 150 139 150
144 0 5 -56 59 -125 121 -69 61 -136 122 -151 135 l-25 24 -32 -33z"/>
<path d="M4190 4383 l0 -53 50 0 50 0 0 53 0 52 -50 0 -50 1 0 -53z"/>
<path d="M4190 4177 l0 -52 50 -1 50 -1 0 54 0 53 -50 0 -50 0 0 -53z"/>
<path d="M4190 3970 l0 -50 49 0 49 0 4 50 3 50 -52 0 -53 0 0 -50z"/>
<path d="M4190 3763 l0 -53 50 0 50 0 0 53 0 52 -50 1 -50 1 0 -54z"/>
<path d="M2071 3446 l-264 -264 267 -267 267 -268 45 44 c25 24 147 145 270
269 l224 224 -263 263 c-144 145 -267 263 -272 263 -6 0 -129 -119 -274 -264z
m468 -460 l-196 -194 -193 193 c-174 174 -192 195 -180 211 8 9 95 97 194 196
l180 179 195 -195 195 -195 -195 -195z"/>
<path d="M2229 3290 l-106 -108 106 -106 c59 -58 110 -106 115 -106 5 0 56 48
114 106 l105 105 -109 110 c-60 60 -111 108 -114 108 -3 -1 -53 -50 -111 -109z"/>
<path d="M3566 3532 c-4 -7 -244 -620 -306 -785 -10 -26 -15 -48 -12 -50 4 -2
362 -3 796 -3 692 1 790 3 794 16 4 12 151 390 313 808 l9 22 -795 0 c-436 0
-796 -4 -799 -8z m1434 -106 c0 -14 -231 -610 -241 -620 -8 -9 -1355 -13
-1363 -5 -2 2 17 58 43 124 41 102 162 415 190 487 l9 23 681 0 c402 0 681 -4
681 -9z"/>
<path d="M3669 3185 c-88 -225 -99 -255 -99 -263 0 -8 1098 -7 1106 1 4 4 154
384 154 390 0 1 -250 2 -555 2 l-555 0 -51 -130z"/>
<path d="M3011 3201 c-1 -54 2 -58 64 -57 40 1 40 1 41 41 2 58 -2 63 -55 63
l-48 1 -2 -48z"/>
<path d="M3222 3197 l3 -52 48 -1 c33 -1 47 3 48 12 0 8 1 31 2 52 l0 37 -52
2 -52 1 3 -51z"/>
<path d="M2290 2464 l0 -51 48 2 c26 1 50 3 53 4 5 1 5 57 0 93 -1 3 -23 6
-51 5 l-50 -2 0 -51z"/>
<path d="M2290 2260 c0 -52 1 -52 50 -52 56 0 55 0 56 52 l0 50 -53 0 -53 0 0
-50z"/>
<path d="M2318 2102 c-26 -3 -28 -6 -28 -53 l0 -50 53 3 52 3 0 43 c1 55 -9
62 -77 54z"/>
<path d="M4130 1917 c-73 -21 -139 -58 -187 -107 -96 -95 -133 -188 -130 -326
2 -82 5 -97 39 -165 134 -271 481 -334 688 -125 93 94 133 191 129 315 -5 174
-103 319 -264 391 -62 27 -207 37 -275 17z m203 -103 c113 -37 182 -105 217
-215 29 -90 22 -168 -23 -252 -57 -109 -162 -171 -287 -171 -91 -1 -164 29
-229 93 -121 119 -129 316 -17 449 78 92 226 134 339 96z"/>
<path d="M4172 1699 c-19 -6 -53 -29 -77 -53 -98 -99 -78 -252 42 -323 125
-73 288 4 308 146 21 155 -120 274 -273 230z"/>
<path d="M2292 1847 l3 -52 50 0 50 0 0 50 0 49 -53 3 -53 3 3 -53z"/>
<path d="M2290 1641 c0 -55 6 -59 70 -53 l37 4 -1 49 -1 49 -52 0 -53 0 0 -49z"/>
<path d="M2303 1483 c-8 -3 -13 -22 -13 -49 l0 -44 54 0 54 0 -3 43 c-2 23 -4
44 -4 47 -1 6 -71 8 -88 3z"/>
<path d="M2505 1480 c-2 -3 -3 -27 -3 -53 l0 -48 51 3 52 3 1 48 c1 26 -2 47
-5 48 -30 4 -93 3 -96 -1z"/>
<path d="M2714 1481 c-2 -2 -4 -26 -4 -53 l0 -48 50 0 50 0 0 50 c0 28 -3 50
-7 51 -31 4 -85 4 -89 0z"/>
<path d="M2921 1475 c-4 -5 -7 -28 -7 -50 l1 -40 53 -3 52 -3 0 50 c0 28 -3
51 -7 52 -44 5 -86 3 -92 -6z"/>
<path d="M3130 1482 c-5 -2 -10 -26 -10 -53 l0 -50 53 3 52 3 -1 49 0 49 -42
1 c-22 1 -46 0 -52 -2z"/>
<path d="M3335 1480 c-4 -7 -7 -50 -6 -77 1 -21 6 -23 52 -23 l50 0 -3 52 -3
52 -43 0 c-24 1 -45 -1 -47 -4z"/>
<path d="M3541 1475 c-5 -5 -8 -28 -7 -50 l1 -40 52 -3 53 -3 -3 53 -3 52 -42
1 c-24 0 -47 -4 -51 -10z"/>
</g>
</svg>
